<svg width="178" height="36" viewBox="0 0 178 36" fill="none" xmlns="http://www.w3.org/2000/svg">
<path d="M177.561 15.5166C177.561 16.2572 177.511 16.9238 177.413 17.5163H162.414C162.538 18.9976 163.056 20.158 163.97 20.9974C164.883 21.8368 166.007 22.2565 167.34 22.2565C169.265 22.2565 170.636 21.4294 171.45 19.7753H177.042C176.45 21.7504 175.314 23.3798 173.635 24.6636C171.956 25.9227 169.895 26.5523 167.451 26.5523C165.476 26.5523 163.698 26.1202 162.118 25.2561C160.563 24.3674 159.341 23.1206 158.452 21.5159C157.588 19.9111 157.156 18.0595 157.156 15.961C157.156 13.8378 157.588 11.9738 158.452 10.3691C159.316 8.76431 160.526 7.52989 162.081 6.6658C163.636 5.80171 165.426 5.36966 167.451 5.36966C169.401 5.36966 171.142 5.78936 172.672 6.62877C174.228 7.46817 175.425 8.66556 176.265 10.2209C177.129 11.7516 177.561 13.5168 177.561 15.5166ZM172.191 14.0353C172.166 12.7021 171.685 11.6405 170.747 10.8505C169.809 10.0358 168.661 9.6284 167.303 9.6284C166.019 9.6284 164.933 10.0234 164.044 10.8134C163.18 11.5788 162.649 12.6527 162.451 14.0353H172.191Z" fill="#1E1E1E"/>
<path d="M150.168 9.96178V19.8865C150.168 20.5778 150.328 21.0839 150.649 21.4048C150.995 21.7011 151.563 21.8492 152.353 21.8492H154.76V26.2191H151.501C147.131 26.2191 144.946 24.0959 144.946 19.8495V9.96178H142.502V5.70304H144.946V0.629578L150.168 0.629578V5.70304L154.76 5.70304V9.96178H150.168Z" fill="#1E1E1E"/>
<path d="M141.337 5.70297L128.635 35.9215H123.117L127.561 25.7006L119.339 5.70297H125.154L130.449 20.0346L135.819 5.70297H141.337Z" fill="#1E1E1E"/>
<path d="M112.578 12.9613C114.035 13.2329 115.232 13.9612 116.17 15.1463C117.108 16.3313 117.577 17.6892 117.577 19.2198C117.577 20.6024 117.232 21.8245 116.541 22.8861C115.874 23.923 114.899 24.7377 113.615 25.3302C112.331 25.9227 110.813 26.219 109.06 26.219H97.9131V0.37027L108.579 0.37027C110.331 0.37027 111.837 0.654186 113.096 1.22202C114.38 1.78985 115.343 2.57988 115.985 3.5921C116.652 4.60433 116.985 5.75234 116.985 7.03613C116.985 8.54212 116.578 9.80123 115.763 10.8135C114.973 11.8257 113.911 12.5416 112.578 12.9613ZM103.098 11.0356H107.838C109.072 11.0356 110.023 10.7641 110.689 10.2209C111.356 9.6531 111.689 8.85073 111.689 7.81382C111.689 6.7769 111.356 5.97453 110.689 5.4067C110.023 4.83887 109.072 4.55495 107.838 4.55495H103.098V11.0356ZM108.319 21.9973C109.578 21.9973 110.554 21.701 111.245 21.1085C111.961 20.516 112.319 19.6766 112.319 18.5903C112.319 17.4793 111.948 16.6152 111.208 15.998C110.467 15.3561 109.467 15.0352 108.208 15.0352H103.098V21.9973H108.319Z" fill="#1E1E1E"/>
<path d="M77.9995 8.66562C78.6661 7.72746 79.5796 6.94978 80.7399 6.33257C81.925 5.69067 83.2705 5.36972 84.7765 5.36972C86.5293 5.36972 88.1094 5.80177 89.5166 6.66586C90.9486 7.52995 92.0719 8.76437 92.8866 10.3691C93.726 11.9492 94.1457 13.7885 94.1457 15.887C94.1457 17.9855 93.726 19.8495 92.8866 21.4789C92.0719 23.0836 90.9486 24.3304 89.5166 25.2192C88.1094 26.108 86.5293 26.5523 84.7765 26.5523C83.2705 26.5523 81.9373 26.2437 80.7769 25.6265C79.6413 25.0093 78.7155 24.2316 77.9995 23.2935V35.9956H72.8149V5.70301H77.9995V8.66562ZM88.85 15.887C88.85 14.6525 88.5908 13.5909 88.0724 12.7022C87.5786 11.7887 86.912 11.0974 86.0726 10.6283C85.2579 10.1593 84.3691 9.92473 83.4063 9.92473C82.4681 9.92473 81.5793 10.1716 80.7399 10.6654C79.9252 11.1345 79.2586 11.8257 78.7402 12.7392C78.2464 13.6527 77.9995 14.7266 77.9995 15.961C77.9995 17.1954 78.2464 18.2694 78.7402 19.1829C79.2586 20.0963 79.9252 20.8 80.7399 21.2937C81.5793 21.7628 82.4681 21.9973 83.4063 21.9973C84.3691 21.9973 85.2579 21.7505 86.0726 21.2567C86.912 20.7629 87.5786 20.0593 88.0724 19.1458C88.5908 18.2324 88.85 17.1461 88.85 15.887Z" fill="#1E1E1E"/>
<path d="M46.3836 15.8869C46.3836 13.8131 46.7909 11.9738 47.6056 10.3691C48.445 8.76431 49.5684 7.52989 50.9756 6.6658C52.4075 5.80171 53.9999 5.36966 55.7528 5.36966C57.2835 5.36966 58.6167 5.67827 59.7523 6.29547C60.9127 6.91268 61.8385 7.69037 62.5298 8.62853V5.70295H67.7513V26.219H62.5298V23.2194C61.8632 24.1822 60.9374 24.9846 59.7523 25.6265C58.592 26.2437 57.2464 26.5523 55.7158 26.5523C53.9876 26.5523 52.4075 26.1079 50.9756 25.2191C49.5684 24.3303 48.445 23.0836 47.6056 21.4788C46.7909 19.8494 46.3836 17.9854 46.3836 15.8869ZM62.5298 15.961C62.5298 14.7019 62.2829 13.6279 61.7891 12.7391C61.2953 11.8257 60.6288 11.1344 59.7893 10.6653C58.9499 10.1715 58.0488 9.92467 57.086 9.92467C56.1231 9.92467 55.2343 10.1592 54.4196 10.6283C53.6049 11.0974 52.9383 11.7886 52.4199 12.7021C51.9261 13.5909 51.6792 14.6525 51.6792 15.8869C51.6792 17.1213 51.9261 18.2076 52.4199 19.1458C52.9383 20.0592 53.6049 20.7629 54.4196 21.2566C55.259 21.7504 56.1478 21.9973 57.086 21.9973C58.0488 21.9973 58.9499 21.7627 59.7893 21.2937C60.6288 20.7999 61.2953 20.1086 61.7891 19.2198C62.2829 18.3064 62.5298 17.2201 62.5298 15.961Z" fill="#1E1E1E"/>
<path d="M34.6023 5.40683C37.0464 5.40683 39.0215 6.18451 40.5275 7.73988C42.0335 9.27056 42.7865 11.4184 42.7865 14.1835V26.2191H37.6019V14.8872C37.6019 13.2577 37.1946 12.011 36.3798 11.1469C35.5651 10.2581 34.4541 9.81371 33.0469 9.81371C31.615 9.81371 30.4793 10.2581 29.6399 11.1469C28.8252 12.011 28.4178 13.2577 28.4178 14.8872V26.2191H23.2333V5.70309H28.4178V8.25834C29.1091 7.36956 29.9855 6.67828 31.0471 6.18451C32.1334 5.66606 33.3185 5.40683 34.6023 5.40683Z" fill="#1E1E1E"/>
<path d="M9.59143 26.4783C7.78918 26.4783 6.15975 26.1697 4.70314 25.5525C3.27121 24.9353 2.13554 24.0465 1.29614 22.8861C0.456735 21.7258 0.0246883 20.3556 0 18.7755H5.55488C5.62895 19.8371 5.99928 20.6765 6.66586 21.2937C7.35714 21.9109 8.29529 22.2195 9.48034 22.2195C10.6901 22.2195 11.6406 21.9356 12.3318 21.3678C13.0231 20.7753 13.3688 20.0099 13.3688 19.0718C13.3688 18.3064 13.1342 17.6769 12.6651 17.1831C12.1961 16.6893 11.6035 16.3067 10.8876 16.0351C10.1963 15.7388 9.23345 15.4179 7.99903 15.0723C6.32022 14.5785 4.95002 14.0971 3.88842 13.628C2.85151 13.1342 1.95038 12.4059 1.18504 11.4431C0.444391 10.4555 0.0740651 9.14704 0.0740651 7.51761C0.0740651 5.98693 0.456735 4.65376 1.22207 3.51809C1.98741 2.38243 3.06136 1.51834 4.44391 0.925815C5.82646 0.308606 7.40651 0 9.18408 0C11.8504 0 14.0107 0.654242 15.6648 1.96273C17.3436 3.24652 18.2694 5.04877 18.4422 7.36948H12.7392C12.6898 6.4807 12.3072 5.75239 11.5912 5.18456C10.8999 4.59204 9.9741 4.29578 8.81375 4.29578C7.80153 4.29578 6.98681 4.55501 6.3696 5.07346C5.77708 5.59192 5.48082 6.34491 5.48082 7.33245C5.48082 8.02372 5.70301 8.6039 6.14741 9.07298C6.61648 9.51737 7.18432 9.8877 7.8509 10.184C8.54218 10.4555 9.50502 10.7765 10.7394 11.1468C12.4183 11.6406 13.7885 12.1343 14.8501 12.6281C15.9117 13.1219 16.8251 13.8625 17.5905 14.8501C18.3558 15.8376 18.7385 17.1337 18.7385 18.7385C18.7385 20.121 18.3805 21.4048 17.6645 22.5899C16.9486 23.7749 15.8993 24.7254 14.5168 25.4414C13.1342 26.1326 11.4924 26.4783 9.59143 26.4783Z" fill="#1E1E1E"/>
</svg>
