<svg width="54" height="88" viewBox="0 0 54 88" fill="none" xmlns="http://www.w3.org/2000/svg">
<g filter="url(#filter0_d_9_71)">
<path fill-rule="evenodd" clip-rule="evenodd" d="M41.4219 12.9399C41.6558 12.8324 41.7714 12.5656 41.6753 12.3267C40.0548 8.29667 34.1525 1 21.9616 1C6.17234 1 1 15.9549 1 21.0289V72.837C2.99634 76.0416 10.038 82.4508 22.2338 82.4508C37.4786 82.4508 48.9122 74.9734 48.9122 58.6832C48.9122 42.393 38.5676 36.5179 32.5785 34.3815C26.5895 32.2451 15.4281 31.711 12.7058 25.3017C9.98355 18.8925 11.8891 10.6139 21.1449 9.54566C28.1034 8.74259 31.7602 13.3796 32.9287 16.2314C33.0419 16.5077 33.3606 16.6468 33.6319 16.5221L41.4219 12.9399ZM8.78906 68.2723C8.67562 68.1159 8.6224 67.9272 8.6224 67.7341V35.9838V35.9838C8.6224 35.1515 10.1034 34.6895 10.7169 35.2519C16.4674 40.5228 29.4628 42.2001 32.0341 43.4613C34.7564 44.7965 40.7454 46.9329 40.7454 58.6832C40.7454 69.3653 32.0341 73.9052 22.2338 73.9052C14.705 73.9052 10.2556 70.2933 8.78906 68.2723Z" fill="#1E1E1E"/>
</g>
<defs>
<filter id="filter0_d_9_71" x="0" y="0" width="53.9122" height="87.4508" filterUnits="userSpaceOnUse" color-interpolation-filters="sRGB">
<feFlood flood-opacity="0" result="BackgroundImageFix"/>
<feColorMatrix in="SourceAlpha" type="matrix" values="0 0 0 0 0 0 0 0 0 0 0 0 0 0 0 0 0 0 127 0" result="hardAlpha"/>
<feOffset dx="2" dy="2"/>
<feGaussianBlur stdDeviation="1.5"/>
<feComposite in2="hardAlpha" operator="out"/>
<feColorMatrix type="matrix" values="0 0 0 0 0.437109 0 0 0 0 0.4055 0 0 0 0 0.4055 0 0 0 0.25 0"/>
<feBlend mode="normal" in2="BackgroundImageFix" result="effect1_dropShadow_9_71"/>
<feBlend mode="normal" in="SourceGraphic" in2="effect1_dropShadow_9_71" result="shape"/>
</filter>
</defs>
</svg>
